<?xml version="1.0"?>
<svg xmlns="http://www.w3.org/2000/svg" xmlns:xlink="http://www.w3.org/1999/xlink" xmlns:svgjs="http://svgjs.com/svgjs" version="1.1" width="512" height="512" x="0" y="0" viewBox="0 0 90 90" style="enable-background:new 0 0 512 512" xml:space="preserve" class=""><circle r="45" cx="45" cy="45" fill="#7026ab" shape="circle"/><g transform="matrix(0.7,0,0,0.7,13.500900077819825,13.260703468322756)"><g xmlns="http://www.w3.org/2000/svg"><path d="m19.454 17.085h51.1c2.35 0 4.184 1.814 4.184 4.152v33.578c0 2.338-1.834 4.156-4.184 4.156h-46.616c-.554 0-1.083.24-1.442.662l-7.221 8.443v-46.84c-.001-2.337 1.833-4.151 4.179-4.151zm0-3.773c-4.377 0-7.973 3.566-7.973 7.926v51.965c0 1.756 2.195 2.559 3.34 1.223l9.988-11.684h45.744c4.383 0 7.972-3.564 7.972-7.926v-33.579c0-4.359-3.589-7.926-7.972-7.926h-51.099z" fill="#ffffff" data-original="#000000" style="" class=""/><path d="m23.724 31.204c-1.061-.014-1.923.832-1.923 1.883 0 1.055.863 1.902 1.923 1.887h42.566c1.055.016 1.923-.832 1.923-1.887 0-1.051-.868-1.896-1.923-1.883z" fill="#ffffff" data-original="#000000" style="" class=""/><path d="m23.724 43.321c-1.061-.018-1.923.83-1.923 1.885 0 1.051.863 1.902 1.923 1.887h19.055c1.055.016 1.922-.836 1.922-1.887 0-1.055-.867-1.902-1.922-1.885z" fill="#ffffff" data-original="#000000" style="" class=""/></g></g></svg>
