<?xml version="1.0" standalone="no"?>
<!DOCTYPE svg PUBLIC "-//W3C//DTD SVG 20010904//EN"
 "http://www.w3.org/TR/2001/REC-SVG-20010904/DTD/svg10.dtd">
<svg version="1.0" xmlns="http://www.w3.org/2000/svg"
 width="222.000000pt" height="222.000000pt" viewBox="0 0 222.000000 222.000000"
 preserveAspectRatio="xMidYMid meet">

<g transform="translate(0.000000,222.000000) scale(0.100000,-0.100000)"
fill="#7026ab" stroke="none">
<path d="M511 2119 c-82 -16 -188 -74 -252 -138 -68 -68 -122 -171 -139 -263
-7 -37 -10 -257 -8 -625 l3 -568 24 -60 c32 -81 83 -156 139 -206 58 -52 168
-105 244 -119 37 -7 257 -10 625 -8 l568 3 60 24 c153 61 250 160 306 311 l24
65 0 595 0 595 -24 65 c-30 83 -80 159 -139 211 -57 50 -167 105 -241 119 -66
12 -1126 12 -1190 -1z m460 -229 l67 -40 151 0 151 0 0 -130 0 -130 -44 31
c-37 26 -50 30 -80 25 -42 -8 -76 -47 -76 -87 0 -29 0 -29 -62 -29 l-61 0
-163 -161 c-158 -156 -164 -161 -186 -147 -12 8 -23 19 -25 25 -2 5 19 38 47
73 28 35 49 68 47 74 -2 7 -69 13 -191 16 -194 5 -205 8 -206 51 0 31 23 39
116 39 69 0 95 4 104 15 10 12 10 18 0 30 -10 12 -37 15 -119 15 -110 0 -131
7 -131 41 0 40 26 49 140 49 82 0 109 3 113 14 10 26 -17 36 -94 36 -69 0 -80
3 -93 22 -13 19 -14 25 -2 43 12 18 27 21 127 25 106 5 114 6 114 25 0 18 -8
20 -80 23 -103 4 -142 34 -99 76 13 14 49 16 242 16 l226 0 67 -40z m643 24
c13 -12 16 -39 16 -124 0 -82 3 -109 14 -113 26 -10 36 16 36 93 0 81 9 100
46 100 36 0 43 -21 46 -136 3 -101 4 -109 23 -109 18 0 20 8 23 80 4 103 34
142 76 99 14 -13 16 -49 16 -242 l0 -226 -40 -67 -40 -67 0 -151 0 -151 -130
0 -130 0 30 42 c16 22 30 53 30 68 0 42 -35 79 -81 86 l-39 7 0 60 0 60 -161
163 c-89 90 -159 168 -157 175 2 7 13 18 25 26 18 12 26 9 83 -37 35 -28 68
-49 74 -47 7 2 13 69 16 191 5 194 8 205 51 206 31 0 39 -23 39 -116 0 -69 4
-95 15 -104 12 -10 18 -10 30 0 12 10 15 37 15 119 0 110 7 131 41 131 10 0
25 -7 33 -16z m-994 -596 c-17 -23 -30 -54 -30 -70 0 -41 48 -88 89 -88 l31 0
0 -62 0 -61 161 -163 c89 -90 159 -168 157 -175 -2 -7 -13 -18 -25 -26 -18
-12 -26 -9 -83 37 -35 28 -68 49 -74 47 -7 -2 -12 -65 -14 -182 -2 -149 -5
-182 -19 -197 -9 -10 -24 -18 -33 -18 -32 0 -40 22 -40 116 0 69 -4 95 -15
104 -12 10 -18 10 -30 0 -12 -10 -15 -37 -15 -119 0 -110 -7 -131 -41 -131
-40 0 -49 26 -49 140 0 82 -3 109 -14 113 -26 10 -36 -16 -36 -93 0 -81 -9
-100 -46 -100 -36 0 -43 21 -46 136 -3 101 -4 109 -23 109 -18 0 -20 -8 -23
-80 -4 -103 -34 -142 -76 -99 -14 13 -16 49 -16 242 l0 226 40 67 40 67 0 151
0 151 130 0 130 0 -30 -42z m957 -305 c2 -5 -19 -38 -47 -73 -28 -35 -49 -68
-47 -74 2 -7 69 -13 191 -16 194 -5 205 -8 206 -50 0 -32 -23 -40 -116 -40
-69 0 -95 -4 -104 -15 -10 -12 -10 -18 0 -30 10 -12 37 -15 120 -15 117 0 138
-9 126 -54 -7 -30 -29 -36 -147 -36 -73 0 -98 -3 -102 -14 -10 -26 16 -36 93
-36 81 0 100 -9 100 -46 0 -36 -21 -43 -136 -46 -101 -3 -109 -4 -109 -23 0
-18 8 -20 80 -23 103 -4 142 -34 99 -76 -13 -14 -49 -16 -242 -16 l-226 0 -67
40 -67 40 -151 0 -151 0 0 130 0 130 44 -31 c37 -26 50 -30 80 -25 42 8 76 47
76 86 0 27 2 28 65 32 l65 4 160 158 c154 153 160 158 182 144 12 -8 23 -19
25 -25z"/>
</g>
</svg>
