<svg width="1363" height="1363" viewBox="0 0 1363 1363" fill="none" xmlns="http://www.w3.org/2000/svg">
<path fill-rule="evenodd" clip-rule="evenodd" d="M411.618 976.792C456.309 932.102 528.522 932.102 573.213 976.792L653.874 1057.45L573.213 1138.12C528.522 1182.81 456.309 1182.81 411.618 1138.12C367.2 1093.7 367.2 1021.48 411.618 976.792Z" fill="#6840D9"/>
<path fill-rule="evenodd" clip-rule="evenodd" d="M267.736 681.125L326.052 739.441L381.37 794.76C424.426 837.816 424.426 908.394 381.37 951.722C338.314 994.778 267.736 994.778 224.408 951.722L32.2918 759.607C-10.7639 716.551 -10.7639 645.972 32.2918 602.644L143.474 491.462C142.656 545.963 157.371 570.761 191.162 604.824L267.736 681.125Z" fill="#6840D9"/>
<path fill-rule="evenodd" clip-rule="evenodd" d="M385.458 411.618C430.149 456.309 430.149 528.523 385.458 573.214L304.524 653.875L223.863 573.214C179.172 528.523 179.172 456.309 223.863 411.618C268.554 366.928 340.767 366.928 385.458 411.618Z" fill="#6840D9"/>
<path fill-rule="evenodd" clip-rule="evenodd" d="M950.632 385.458C905.941 430.148 833.728 430.148 789.037 385.458L708.375 304.524L789.037 223.863C833.728 179.172 905.941 179.172 950.632 223.863C995.323 268.553 995.323 340.767 950.632 385.458Z" fill="#6840D9"/>
<path fill-rule="evenodd" clip-rule="evenodd" d="M681.125 267.736L622.809 326.052L567.491 381.37C524.435 424.426 453.856 424.426 410.528 381.37C367.472 338.314 367.472 267.736 410.528 224.408L602.644 32.2918C645.7 -10.7639 716.278 -10.7639 759.606 32.2918L870.788 143.474C816.287 142.656 791.49 157.371 757.426 191.162L681.125 267.736Z" fill="#6840D9"/>
<path fill-rule="evenodd" clip-rule="evenodd" d="M1094.51 681.125L1036.2 622.809L980.88 567.491C937.824 524.435 937.824 453.584 980.88 410.528C1023.94 367.472 1094.51 367.472 1137.84 410.528L1329.96 602.644C1373.01 645.7 1373.01 716.278 1329.96 759.606L1218.78 870.788C1219.59 816.287 1204.88 791.49 1171.09 757.426L1094.51 681.125Z" fill="#6840D9"/>
<path fill-rule="evenodd" clip-rule="evenodd" d="M977.064 950.632C932.374 905.942 932.374 833.728 977.064 789.037L1057.73 708.376L1138.39 789.037C1183.08 833.728 1183.08 905.942 1138.39 950.632C1093.7 995.051 1021.48 995.051 977.064 950.632Z" fill="#6840D9"/>
<path fill-rule="evenodd" clip-rule="evenodd" d="M681.126 1094.51L739.442 1036.2L794.76 980.88C837.816 937.825 908.394 937.825 951.723 980.88C994.778 1023.94 994.778 1094.51 951.723 1137.84L759.607 1329.96C716.551 1373.01 645.973 1373.01 602.644 1329.96L491.462 1218.78C545.963 1219.59 570.761 1204.88 604.824 1171.09L681.126 1094.51Z" fill="#6840D9"/>
<path fill-rule="evenodd" clip-rule="evenodd" d="M575.393 922.564L613.544 960.715C632.619 979.79 657.962 989.328 683.032 988.783C707.83 988.783 732.901 979.517 751.703 960.715L963.167 749.251L963.984 748.434C1001.59 710.828 1001.59 649.242 963.984 611.636C960.714 608.366 957.172 605.369 953.357 602.644L924.199 573.486L902.943 552.23C901.853 579.481 890.953 606.459 870.243 627.169L870.515 627.442L816.832 681.125L795.577 702.38L747.343 750.614L682.76 815.197L634.254 766.691L629.076 761.514L627.441 759.879L573.758 706.195L524.162 755.791C522.527 757.154 521.164 758.516 519.802 759.879C518.439 761.241 517.077 762.876 515.714 764.239L514.079 765.874L514.352 766.146C490.371 795.849 492.279 839.995 519.802 867.518L521.437 869.153L575.393 922.564Z" fill="#F41690"/>
<path fill-rule="evenodd" clip-rule="evenodd" d="M789.309 438.324L751.159 400.173C732.083 381.098 706.741 371.56 681.67 372.105C656.872 372.105 631.802 381.37 612.999 400.173L401.535 611.637L400.718 612.454C363.112 650.06 363.112 711.646 400.718 749.251C403.988 752.521 407.53 755.519 411.346 758.244L440.504 787.402L461.759 808.657C462.849 781.407 473.749 754.429 494.459 733.719L494.187 733.446L547.87 679.763L569.126 658.507L617.359 610.274L681.943 545.69L730.176 593.924L735.626 599.374L737.261 601.009L790.672 654.42L838.633 606.459C840.813 604.824 842.72 602.916 844.9 601.009C846.808 599.101 848.715 596.921 850.35 594.741C874.331 565.038 872.423 520.893 844.9 493.37L843.265 491.735L789.309 438.324Z" fill="#55BDDE"/>
</svg>
