<svg width="500" height="500" viewBox="0 0 500 500" fill="none" xmlns="http://www.w3.org/2000/svg">
<path fill-rule="evenodd" clip-rule="evenodd" d="M151.1 358.5C167.5 342.1 194 342.1 210.4 358.5L240 388.1L210.4 417.7C194 434.1 167.5 434.1 151.1 417.7C134.8 401.4 134.8 374.9 151.1 358.5Z" fill="white"/>
<path fill-rule="evenodd" clip-rule="evenodd" d="M98.3 250L119.7 271.4L140 291.7C155.8 307.5 155.8 333.4 140 349.3C124.2 365.1 98.3 365.1 82.4 349.3L11.9 278.8C-3.90001 263 -3.90001 237.1 11.9 221.2L52.7 180.4C52.4 200.4 57.8 209.5 70.2 222L98.3 250Z" fill="white"/>
<path fill-rule="evenodd" clip-rule="evenodd" d="M141.5 151.1C157.9 167.5 157.9 194 141.5 210.4L111.8 240L82.2 210.4C65.8 194 65.8 167.5 82.2 151.1C98.6 134.7 125.1 134.7 141.5 151.1Z" fill="white"/>
<path fill-rule="evenodd" clip-rule="evenodd" d="M348.9 141.5C332.5 157.9 306 157.9 289.6 141.5L260 111.8L289.6 82.2C306 65.8 332.5 65.8 348.9 82.2C365.3 98.6 365.3 125.1 348.9 141.5Z" fill="white"/>
<path fill-rule="evenodd" clip-rule="evenodd" d="M250 98.3L228.6 119.7L208.3 140C192.5 155.8 166.6 155.8 150.7 140C134.9 124.2 134.9 98.3 150.7 82.4L221.2 11.9C237 -3.90001 262.9 -3.90001 278.8 11.9L319.6 52.7C299.6 52.4 290.5 57.8 278 70.2L250 98.3Z" fill="white"/>
<path fill-rule="evenodd" clip-rule="evenodd" d="M401.7 250L380.3 228.6L360 208.3C344.2 192.5 344.2 166.5 360 150.7C375.8 134.9 401.7 134.9 417.6 150.7L488.1 221.2C503.9 237 503.9 262.9 488.1 278.8L447.3 319.6C447.6 299.6 442.2 290.5 429.8 278L401.7 250Z" fill="white"/>
<path fill-rule="evenodd" clip-rule="evenodd" d="M358.6 348.9C342.2 332.5 342.2 306 358.6 289.6L388.2 260L417.8 289.6C434.2 306 434.2 332.5 417.8 348.9C401.4 365.2 374.9 365.2 358.6 348.9Z" fill="white"/>
<path fill-rule="evenodd" clip-rule="evenodd" d="M250 401.7L271.4 380.3L291.7 360C307.5 344.2 333.4 344.2 349.3 360C365.1 375.8 365.1 401.7 349.3 417.6L278.8 488.1C263 503.9 237.1 503.9 221.2 488.1L180.4 447.3C200.4 447.6 209.5 442.2 222 429.8L250 401.7Z" fill="white"/>
<path fill-rule="evenodd" clip-rule="evenodd" d="M211.2 338.6L225.2 352.6C232.2 359.6 241.5 363.1 250.7 362.9C259.8 362.9 269 359.5 275.9 352.6L353.5 275L353.8 274.7C367.6 260.9 367.6 238.3 353.8 224.5C352.6 223.3 351.3 222.2 349.9 221.2L339.2 210.5L331.4 202.7C331 212.7 327 222.6 319.4 230.2L319.5 230.3L299.8 250L292 257.8L274.3 275.5L250.6 299.2L232.8 281.4L230.9 279.5L230.3 278.9L210.6 259.2L192.4 277.4C191.8 277.9 191.3 278.4 190.8 278.9C190.3 279.4 189.8 280 189.3 280.5L188.7 281.1L188.8 281.2C180 292.1 180.7 308.3 190.8 318.4L191.4 319L211.2 338.6Z" fill="white"/>
<path fill-rule="evenodd" clip-rule="evenodd" d="M289.7 160.9L275.7 146.9C268.7 139.9 259.4 136.4 250.2 136.6C241.1 136.6 231.9 140 225 146.9L147.4 224.5L147.1 224.8C133.3 238.6 133.3 261.2 147.1 275C148.3 276.2 149.6 277.3 151 278.3L161.7 289L169.5 296.8C169.9 286.8 173.9 276.9 181.5 269.3L181.4 269.2L201.1 249.5L208.9 241.7L226.6 224L250.3 200.3L268 218L270 220L270.6 220.6L290.2 240.2L307.8 222.6C308.6 222 309.3 221.3 310.1 220.6C310.8 219.9 311.5 219.1 312.1 218.3C320.9 207.4 320.2 191.2 310.1 181.1L309.5 180.5L289.7 160.9Z" fill="white"/>
</svg>
