<svg width="768" height="729" viewBox="0 0 768 729" fill="none" xmlns="http://www.w3.org/2000/svg">
<g id="undraw_App_wireframe_re_d467 1">
<g id="ground">
<circle id="Ellipse 1" cx="408" cy="390" r="318" fill="url(#paint0_linear)"/>
<mask id="mask0" mask-type="alpha" maskUnits="userSpaceOnUse" x="88" y="72" width="636" height="636">
<circle id="Ellipse 2" cx="406" cy="390" r="318" fill="#C4C4C4"/>
</mask>
<g mask="url(#mask0)">
<ellipse id="Ellipse 3" cx="425" cy="791.5" rx="375" ry="196.5" fill="#78569A"/>
</g>
</g>
<g id="phone">
<path id="Vector" d="M455.048 210.773H451.84V122.874C451.84 109.381 446.48 96.4413 436.939 86.9006C427.398 77.3599 414.458 72 400.966 72H214.739C208.058 72 201.442 73.3159 195.27 75.8725C189.098 78.4291 183.49 82.1765 178.765 86.9005C174.041 91.6246 170.294 97.2329 167.737 103.405C165.181 109.577 163.865 116.193 163.865 122.874V605.097C163.865 611.778 165.181 618.394 167.737 624.566C170.294 630.738 174.041 636.346 178.765 641.071C183.489 645.795 189.098 649.542 195.27 652.099C201.442 654.655 208.058 655.971 214.739 655.971H400.965C414.458 655.971 427.398 650.611 436.939 641.071C446.479 631.53 451.839 618.59 451.839 605.098V273.342H455.048L455.048 210.773Z" fill="#E6E6E6"/>
<path id="Vector_2" d="M403.018 85.2356H378.71C379.827 87.9764 380.254 90.9499 379.952 93.8944C379.65 96.8389 378.629 99.6639 376.978 102.121C375.326 104.577 373.097 106.59 370.484 107.982C367.872 109.374 364.958 110.102 361.998 110.103H255.311C252.351 110.102 249.436 109.374 246.824 107.982C244.212 106.59 241.982 104.577 240.331 102.121C238.68 99.6639 237.658 96.8389 237.356 93.8944C237.054 90.9499 237.481 87.9763 238.599 85.2356H215.894C205.818 85.2356 196.155 89.2383 189.03 96.3632C181.905 103.488 177.902 113.151 177.902 123.228V604.744C177.902 609.733 178.885 614.673 180.794 619.283C182.704 623.892 185.502 628.08 189.03 631.608C192.558 635.136 196.746 637.934 201.356 639.844C205.965 641.753 210.905 642.736 215.894 642.736H403.018C408.008 642.736 412.948 641.753 417.557 639.844C422.167 637.934 426.355 635.136 429.883 631.608C433.411 628.08 436.209 623.892 438.118 619.283C440.028 614.673 441.01 609.733 441.01 604.744V123.228C441.01 118.238 440.028 113.298 438.118 108.689C436.209 104.079 433.411 99.8911 429.883 96.3632C426.355 92.8353 422.167 90.0368 417.557 88.1276C412.948 86.2183 408.008 85.2356 403.018 85.2356V85.2356Z" fill="white"/>
</g>
<g id="VOTE EVERY DAY 1">
<g id="Logo">
<g id="Group">
<path id="Vector_3" fill-rule="evenodd" clip-rule="evenodd" d="M282.951 259.507C287.346 255.112 294.448 255.112 298.844 259.507L306.776 267.44L298.844 275.373C294.448 279.768 287.346 279.768 282.951 275.373C278.583 271.004 278.583 263.902 282.951 259.507Z" fill="#6C449A"/>
<path id="Vector_4" fill-rule="evenodd" clip-rule="evenodd" d="M268.801 230.429L274.536 236.164L279.976 241.605C284.211 245.839 284.211 252.78 279.976 257.041C275.742 261.276 268.801 261.276 264.54 257.041L245.646 238.147C241.411 233.913 241.411 226.972 245.646 222.711L256.58 211.776C256.5 217.136 257.947 219.575 261.27 222.925L268.801 230.429Z" fill="#6C449A"/>
<path id="Vector_5" fill-rule="evenodd" clip-rule="evenodd" d="M280.378 203.924C284.774 208.319 284.774 215.421 280.378 219.816L272.419 227.749L264.486 219.816C260.091 215.421 260.091 208.319 264.486 203.924C268.881 199.529 275.983 199.529 280.378 203.924Z" fill="#6C449A"/>
<path id="Vector_6" fill-rule="evenodd" clip-rule="evenodd" d="M335.962 201.351C331.566 205.746 324.464 205.746 320.069 201.351L312.136 193.391L320.069 185.459C324.464 181.063 331.566 181.063 335.962 185.459C340.357 189.854 340.357 196.956 335.962 201.351Z" fill="#6C449A"/>
<path id="Vector_7" fill-rule="evenodd" clip-rule="evenodd" d="M309.456 189.773L303.721 195.509L298.281 200.949C294.046 205.183 287.105 205.183 282.844 200.949C278.61 196.715 278.61 189.773 282.844 185.512L301.738 166.618C305.972 162.384 312.914 162.384 317.175 166.618L328.109 177.553C322.749 177.472 320.31 178.919 316.96 182.243L309.456 189.773Z" fill="#6C449A"/>
<path id="Vector_8" fill-rule="evenodd" clip-rule="evenodd" d="M350.112 230.429L344.377 224.694L338.936 219.253C334.702 215.019 334.702 208.051 338.936 203.817C343.171 199.582 350.112 199.582 354.373 203.817L373.267 222.711C377.502 226.945 377.502 233.886 373.267 238.147L362.333 249.082C362.413 243.722 360.966 241.283 357.643 237.933L350.112 230.429Z" fill="#6C449A"/>
<path id="Vector_9" fill-rule="evenodd" clip-rule="evenodd" d="M338.561 256.934C334.166 252.539 334.166 245.437 338.561 241.042L346.494 233.109L354.427 241.042C358.822 245.437 358.822 252.539 354.427 256.934C350.032 261.303 342.93 261.303 338.561 256.934Z" fill="#6C449A"/>
<path id="Vector_10" fill-rule="evenodd" clip-rule="evenodd" d="M309.456 271.085L315.192 265.349L320.632 259.909C324.866 255.675 331.808 255.675 336.069 259.909C340.303 264.143 340.303 271.085 336.069 275.346L317.175 294.24C312.94 298.474 305.999 298.474 301.738 294.24L290.804 283.305C296.164 283.386 298.602 281.939 301.952 278.615L309.456 271.085Z" fill="#6C449A"/>
</g>
<path id="Vector_11" fill-rule="evenodd" clip-rule="evenodd" d="M299.058 254.174L302.81 257.926C304.686 259.802 307.178 260.74 309.644 260.686C312.083 260.686 314.548 259.775 316.398 257.926L337.194 237.129L337.275 237.049C340.973 233.35 340.973 227.293 337.275 223.595C336.953 223.273 336.605 222.979 336.23 222.711L333.362 219.843L331.272 217.753C331.164 220.433 330.092 223.086 328.056 225.123L328.082 225.149L322.803 230.429L320.712 232.519L315.969 237.263L309.617 243.615L304.847 238.844L304.338 238.335L304.177 238.174L298.897 232.895L294.02 237.772C293.859 237.906 293.725 238.04 293.591 238.174C293.457 238.308 293.323 238.469 293.189 238.603L293.028 238.764L293.055 238.791C290.696 241.712 290.884 246.053 293.591 248.76L293.752 248.921L299.058 254.174Z" fill="#F41690"/>
<path id="Vector_12" fill-rule="evenodd" clip-rule="evenodd" d="M320.096 206.55L316.344 202.798C314.468 200.922 311.976 199.984 309.51 200.038C307.071 200.038 304.606 200.949 302.756 202.798L281.96 223.595L281.879 223.675C278.181 227.374 278.181 233.431 281.879 237.129C282.201 237.451 282.549 237.745 282.924 238.013L285.792 240.881L287.882 242.971C287.99 240.291 289.062 237.638 291.098 235.601L291.072 235.575L296.351 230.295L298.442 228.205L303.185 223.461L309.537 217.109L314.28 221.853L314.816 222.389L314.977 222.55L320.23 227.803L324.947 223.086C325.161 222.925 325.349 222.737 325.563 222.55C325.751 222.362 325.938 222.148 326.099 221.933C328.458 219.012 328.27 214.671 325.563 211.964L325.402 211.803L320.096 206.55Z" fill="#55BDDE"/>
</g>
</g>
<g id="man">
<path id="Vector_13" d="M553.826 644.696H540.838L534.659 594.599L553.829 594.599L553.826 644.696Z" fill="#FFB8B8"/>
<path id="Vector_14" d="M527.735 640.984H556.609V656.756H515.79V652.93C515.79 649.761 517.048 646.723 519.288 644.483C521.529 642.243 524.567 640.984 527.735 640.984Z" fill="#2F2E41"/>
<path id="Vector_15" d="M605.737 644.696H592.749L586.57 594.599L605.74 594.599L605.737 644.696Z" fill="#FFB8B8"/>
<path id="Vector_16" d="M579.646 640.984H608.52V656.756H567.701V652.93C567.701 649.761 568.959 646.723 571.199 644.483C573.439 642.243 576.478 640.984 579.646 640.984Z" fill="#2F2E41"/>
<path id="Vector_17" d="M531.198 500.277C532.257 499.283 533.086 498.07 533.625 496.721C534.165 495.373 534.402 493.923 534.321 492.473C534.239 491.023 533.84 489.608 533.153 488.329C532.465 487.05 531.506 485.937 530.342 485.068L535.906 463.06L523.357 456.416L515.935 487.607C514.606 489.659 514.076 492.128 514.445 494.545C514.814 496.962 516.058 499.16 517.939 500.721C519.82 502.283 522.209 503.1 524.653 503.018C527.097 502.937 529.425 501.961 531.198 500.277Z" fill="#FFB8B8"/>
<path id="Vector_18" d="M610.357 461.836L609.297 535.995L608.237 633.461L584.931 631.341L573.278 496.797L558.446 631.341H534.383L531.96 495.738L540.436 466.074L610.357 461.836Z" fill="#2F2E41"/>
<path id="Vector_19" d="M538.113 466.526L537.772 466.373L551.054 375.519L544.302 348.058C543.951 346.629 544.136 345.121 544.822 343.82C545.509 342.519 546.649 341.515 548.026 340.998L560.176 336.442L564.468 324.638L598.335 328.287L599.168 337.513C602.838 338.69 633.059 348.754 630.974 360.222C628.916 371.541 616.764 407.154 616.147 408.958L614.019 460.031L613.757 460.162C613.442 460.319 590.099 471.797 564.739 471.795C555.809 471.794 546.623 470.37 538.113 466.526Z" fill="#3F3D56"/>
<path id="Vector_20" d="M515.496 476.063L526.173 407.729C526.237 407.327 532.554 367.324 534.649 354.755C536.812 341.777 546.858 341.627 546.959 341.627H552.488L558.954 370.727L546.215 429.112L534.462 477.495L515.496 476.063Z" fill="#3F3D56"/>
<path id="Vector_21" d="M584.753 469.319C584.821 467.868 585.207 466.45 585.883 465.165C586.559 463.879 587.509 462.758 588.665 461.879C589.822 461.001 591.157 460.386 592.576 460.079C593.996 459.772 595.465 459.78 596.881 460.103L610.018 441.589L623.216 446.828L604.297 472.713C603.597 475.056 602.063 477.061 599.984 478.348C597.905 479.635 595.426 480.115 593.017 479.697C590.608 479.278 588.436 477.991 586.913 476.078C585.39 474.165 584.621 471.76 584.753 469.319Z" fill="#FFB8B8"/>
<path id="Vector_22" d="M599.164 453.397L622.521 414.114L613.005 388.737L625.965 354.175L626.443 354.38C626.757 354.514 634.121 357.8 635.212 369.569L650.107 416.379L610.356 467.947L599.164 453.397Z" fill="#3F3D56"/>
<path id="Vector_23" d="M601.47 306.108C607.93 294.291 603.587 279.475 591.771 273.016C579.954 266.556 565.138 270.899 558.679 282.716C552.219 294.532 556.562 309.348 568.378 315.808C580.195 322.267 595.011 317.924 601.47 306.108Z" fill="#FFB8B8"/>
<path id="Vector_24" d="M563.703 282.535C566.227 285.522 570.499 286.365 574.44 286.711C582.443 287.412 594.08 286.274 601.9 284.468C602.459 289.878 600.937 295.712 604.123 300.162C605.617 294.774 606.486 289.232 606.712 283.646C606.809 281.25 606.771 278.771 605.797 276.572C604.823 274.372 602.7 272.505 600.255 272.486C602.071 271.108 604.199 270.198 606.451 269.837L598.708 265.946L600.697 263.905L586.679 263.047L590.739 260.468C584.629 259.628 578.447 259.433 572.296 259.886C569.439 260.096 566.453 260.498 564.138 262.153C561.824 263.808 560.486 267.098 561.923 269.528C560.124 269.823 558.431 270.573 557.003 271.706C555.575 272.839 554.46 274.318 553.763 276.002C552.731 278.618 552.826 281.523 553.144 284.311C553.672 288.769 554.708 293.152 556.232 297.375" fill="#2F2E41"/>
</g>
<path id="Vote Every Day" d="M215.02 325L205.87 346H202.03L192.85 325H197.08L204.07 341.2L211.12 325H215.02ZM222.875 346.21C221.255 346.21 219.795 345.86 218.495 345.16C217.195 344.46 216.175 343.49 215.435 342.25C214.715 340.99 214.355 339.57 214.355 337.99C214.355 336.41 214.715 335 215.435 333.76C216.175 332.52 217.195 331.55 218.495 330.85C219.795 330.15 221.255 329.8 222.875 329.8C224.515 329.8 225.985 330.15 227.285 330.85C228.585 331.55 229.595 332.52 230.315 333.76C231.055 335 231.425 336.41 231.425 337.99C231.425 339.57 231.055 340.99 230.315 342.25C229.595 343.49 228.585 344.46 227.285 345.16C225.985 345.86 224.515 346.21 222.875 346.21ZM222.875 343C224.255 343 225.395 342.54 226.295 341.62C227.195 340.7 227.645 339.49 227.645 337.99C227.645 336.49 227.195 335.28 226.295 334.36C225.395 333.44 224.255 332.98 222.875 332.98C221.495 332.98 220.355 333.44 219.455 334.36C218.575 335.28 218.135 336.49 218.135 337.99C218.135 339.49 218.575 340.7 219.455 341.62C220.355 342.54 221.495 343 222.875 343ZM244.641 345.13C244.201 345.49 243.661 345.76 243.021 345.94C242.401 346.12 241.741 346.21 241.041 346.21C239.281 346.21 237.921 345.75 236.961 344.83C236.001 343.91 235.521 342.57 235.521 340.81V333.1H232.881V330.1H235.521V326.44H239.271V330.1H243.561V333.1H239.271V340.72C239.271 341.5 239.461 342.1 239.841 342.52C240.221 342.92 240.771 343.12 241.491 343.12C242.331 343.12 243.031 342.9 243.591 342.46L244.641 345.13ZM262.258 338.08C262.258 338.34 262.238 338.71 262.198 339.19H249.628C249.848 340.37 250.418 341.31 251.338 342.01C252.278 342.69 253.438 343.03 254.818 343.03C256.578 343.03 258.028 342.45 259.168 341.29L261.178 343.6C260.458 344.46 259.548 345.11 258.448 345.55C257.348 345.99 256.108 346.21 254.728 346.21C252.968 346.21 251.418 345.86 250.078 345.16C248.738 344.46 247.698 343.49 246.958 342.25C246.238 340.99 245.878 339.57 245.878 337.99C245.878 336.43 246.228 335.03 246.928 333.79C247.648 332.53 248.638 331.55 249.898 330.85C251.158 330.15 252.578 329.8 254.158 329.8C255.718 329.8 257.108 330.15 258.328 330.85C259.568 331.53 260.528 332.5 261.208 333.76C261.908 335 262.258 336.44 262.258 338.08ZM254.158 332.8C252.958 332.8 251.938 333.16 251.098 333.88C250.278 334.58 249.778 335.52 249.598 336.7H258.688C258.528 335.54 258.038 334.6 257.218 333.88C256.398 333.16 255.378 332.8 254.158 332.8ZM290.261 342.73V346H274.511V325H289.841V328.27H278.411V333.73H288.551V336.94H278.411V342.73H290.261ZM309.044 329.98L302.174 346H298.304L291.434 329.98H295.334L300.314 341.86L305.444 329.98H309.044ZM326.008 338.08C326.008 338.34 325.988 338.71 325.948 339.19H313.378C313.598 340.37 314.168 341.31 315.088 342.01C316.028 342.69 317.188 343.03 318.568 343.03C320.328 343.03 321.778 342.45 322.918 341.29L324.928 343.6C324.208 344.46 323.298 345.11 322.198 345.55C321.098 345.99 319.858 346.21 318.478 346.21C316.718 346.21 315.168 345.86 313.828 345.16C312.488 344.46 311.448 343.49 310.708 342.25C309.988 340.99 309.628 339.57 309.628 337.99C309.628 336.43 309.978 335.03 310.678 333.79C311.398 332.53 312.388 331.55 313.648 330.85C314.908 330.15 316.328 329.8 317.908 329.8C319.468 329.8 320.858 330.15 322.078 330.85C323.318 331.53 324.278 332.5 324.958 333.76C325.658 335 326.008 336.44 326.008 338.08ZM317.908 332.8C316.708 332.8 315.688 333.16 314.848 333.88C314.028 334.58 313.528 335.52 313.348 336.7H322.438C322.278 335.54 321.788 334.6 320.968 333.88C320.148 333.16 319.128 332.8 317.908 332.8ZM333.18 332.32C334.26 330.64 336.16 329.8 338.88 329.8V333.37C338.56 333.31 338.27 333.28 338.01 333.28C336.55 333.28 335.41 333.71 334.59 334.57C333.77 335.41 333.36 336.63 333.36 338.23V346H329.61V329.98H333.18V332.32ZM357.648 329.98L350.148 347.29C349.448 349.03 348.598 350.25 347.598 350.95C346.598 351.67 345.388 352.03 343.968 352.03C343.168 352.03 342.378 351.9 341.598 351.64C340.818 351.38 340.177 351.02 339.677 350.56L341.177 347.8C341.538 348.14 341.958 348.41 342.438 348.61C342.938 348.81 343.438 348.91 343.938 348.91C344.598 348.91 345.138 348.74 345.558 348.4C345.998 348.06 346.398 347.49 346.758 346.69L347.028 346.06L340.037 329.98H343.938L348.978 341.83L354.048 329.98H357.648ZM368.642 325H377.822C380.062 325 382.052 325.44 383.792 326.32C385.532 327.18 386.882 328.41 387.842 330.01C388.802 331.59 389.282 333.42 389.282 335.5C389.282 337.58 388.802 339.42 387.842 341.02C386.882 342.6 385.532 343.83 383.792 344.71C382.052 345.57 380.062 346 377.822 346H368.642V325ZM377.642 342.7C379.182 342.7 380.532 342.41 381.692 341.83C382.872 341.23 383.772 340.39 384.392 339.31C385.032 338.21 385.352 336.94 385.352 335.5C385.352 334.06 385.032 332.8 384.392 331.72C383.772 330.62 382.872 329.78 381.692 329.2C380.532 328.6 379.182 328.3 377.642 328.3H372.542V342.7H377.642ZM399.187 329.8C401.547 329.8 403.347 330.37 404.587 331.51C405.847 332.63 406.477 334.33 406.477 336.61V346H402.937V344.05C402.477 344.75 401.817 345.29 400.957 345.67C400.117 346.03 399.097 346.21 397.897 346.21C396.697 346.21 395.647 346.01 394.747 345.61C393.847 345.19 393.147 344.62 392.647 343.9C392.167 343.16 391.927 342.33 391.927 341.41C391.927 339.97 392.457 338.82 393.517 337.96C394.597 337.08 396.287 336.64 398.587 336.64H402.727V336.4C402.727 335.28 402.387 334.42 401.707 333.82C401.047 333.22 400.057 332.92 398.737 332.92C397.837 332.92 396.947 333.06 396.067 333.34C395.207 333.62 394.477 334.01 393.877 334.51L392.407 331.78C393.247 331.14 394.257 330.65 395.437 330.31C396.617 329.97 397.867 329.8 399.187 329.8ZM398.677 343.48C399.617 343.48 400.447 343.27 401.167 342.85C401.907 342.41 402.427 341.79 402.727 340.99V339.13H398.857C396.697 339.13 395.617 339.84 395.617 341.26C395.617 341.94 395.887 342.48 396.427 342.88C396.967 343.28 397.717 343.48 398.677 343.48ZM425.997 329.98L418.497 347.29C417.797 349.03 416.947 350.25 415.947 350.95C414.947 351.67 413.737 352.03 412.317 352.03C411.517 352.03 410.727 351.9 409.947 351.64C409.167 351.38 408.527 351.02 408.027 350.56L409.527 347.8C409.887 348.14 410.307 348.41 410.787 348.61C411.287 348.81 411.787 348.91 412.287 348.91C412.947 348.91 413.487 348.74 413.907 348.4C414.347 348.06 414.747 347.49 415.107 346.69L415.377 346.06L408.387 329.98H412.287L417.327 341.83L422.397 329.98H425.997Z" fill="#6F26AB"/>
</g>
<defs>
<linearGradient id="paint0_linear" x1="408" y1="708" x2="408" y2="72" gradientUnits="userSpaceOnUse">
<stop stop-color="#DCC7FE" stop-opacity="0"/>
<stop offset="0.0001" stop-color="#DCC7FE" stop-opacity="0"/>
<stop offset="1" stop-color="#FEFEFF" stop-opacity="0.35"/>
</linearGradient>
</defs>
</svg>
