<?xml version="1.0" standalone="no"?>
<!DOCTYPE svg PUBLIC "-//W3C//DTD SVG 20010904//EN"
 "http://www.w3.org/TR/2001/REC-SVG-20010904/DTD/svg10.dtd">
<svg version="1.0" xmlns="http://www.w3.org/2000/svg"
 width="420.000000pt" height="100.000000pt" viewBox="0 0 420.000000 100.000000"
 preserveAspectRatio="xMidYMid meet">
<metadata>
Created by potrace 1.16, written by Peter Selinger 2001-2019
</metadata>
<g transform="translate(0.000000,100.000000) scale(0.100000,-0.100000)"
fill="#000000" stroke="none">
<path d="M0 500 l0 -500 2100 0 2100 0 0 500 0 500 -2100 0 -2100 0 0 -500z
m980 0 l0 -480 -480 0 -480 0 0 480 0 480 480 0 480 0 0 -480z m375 105 c14
-13 25 -31 25 -40 0 -22 -43 -19 -58 5 -12 20 -37 25 -66 14 -32 -12 -15 -34
39 -49 30 -9 62 -23 70 -31 21 -22 19 -77 -4 -98 -47 -42 -154 -24 -167 29
-12 47 24 63 44 20 9 -19 19 -25 44 -25 76 1 76 41 1 59 -62 16 -83 36 -83 77
0 42 30 64 88 64 32 0 49 -6 67 -25z m1385 -9 c0 -34 1 -35 34 -29 55 9 76
-21 76 -107 0 -63 -2 -70 -20 -70 -17 0 -20 7 -20 53 0 64 -19 98 -47 81 -14
-8 -19 -26 -21 -73 -3 -53 -6 -61 -22 -61 -19 0 -20 8 -20 120 0 113 1 120 20
120 16 0 20 -7 20 -34z m422 14 c35 -27 42 -57 14 -64 -11 -3 -23 -1 -24 4 -8
23 -35 40 -62 40 -53 0 -88 -77 -60 -130 22 -42 112 -44 118 -2 3 19 -1 22
-27 22 -25 0 -31 4 -31 21 0 18 5 20 53 17 l52 -3 3 -43 c4 -52 -8 -68 -58
-83 -50 -15 -102 -5 -133 27 -49 49 -44 152 10 194 35 27 111 27 145 0z
m-1527 -149 c0 -96 -2 -104 -24 -122 -30 -24 -82 -24 -112 -1 -27 23 -21 53
10 45 12 -3 21 -10 21 -15 0 -14 53 -5 58 10 2 8 -9 12 -37 12 -50 0 -71 26
-71 89 0 67 27 92 99 88 l56 -2 0 -104z m166 88 c15 -15 19 -33 19 -89 0 -63
-2 -70 -20 -70 -17 0 -20 7 -20 53 0 64 -19 98 -47 81 -14 -8 -19 -26 -21 -73
-3 -53 -6 -61 -22 -61 -18 0 -20 7 -20 88 l0 88 56 1 c43 1 60 -3 75 -18z
m351 4 c14 -13 18 -32 18 -90 0 -66 -2 -73 -20 -73 -18 0 -20 7 -20 54 0 67
-7 86 -31 86 -24 0 -39 -37 -39 -96 0 -37 -3 -44 -20 -44 -18 0 -20 7 -20 83
0 46 2 86 5 89 13 13 111 6 127 -9z m179 -33 c14 -56 20 -56 34 3 8 30 17 43
32 45 17 3 23 -6 35 -50 l16 -53 12 48 c7 27 19 51 27 54 31 12 32 -14 6 -95
-23 -69 -31 -82 -49 -82 -17 0 -24 10 -35 48 l-13 47 -11 -45 c-9 -37 -15 -46
-35 -48 -23 -3 -27 3 -47 76 -28 95 -28 102 -4 102 15 0 22 -12 32 -50z m1020
37 c56 -43 49 -142 -12 -167 -34 -15 -72 -7 -99 20 -30 30 -27 103 5 135 27
27 79 33 106 12z m194 -12 c19 -18 25 -35 25 -67 0 -53 -20 -84 -61 -93 -82
-18 -136 64 -94 145 17 32 27 38 73 39 22 1 41 -7 57 -24z m195 -86 c0 -100
-2 -109 -22 -123 -47 -33 -128 -10 -128 36 0 22 10 23 36 3 25 -19 60 -19 67
-1 5 11 -4 16 -36 18 -37 3 -44 7 -60 40 -21 43 -16 89 14 119 14 14 32 18 74
17 l55 -2 0 -107z m225 105 c19 -8 45 -55 45 -84 0 -18 -6 -20 -60 -20 -61 0
-72 -8 -45 -30 15 -12 55 -5 55 11 0 5 11 9 25 9 32 0 32 -14 0 -45 -27 -28
-46 -30 -93 -14 -24 8 -34 20 -43 49 -25 84 39 153 116 124z"/>
<path d="M446 665 c-41 -14 -96 -61 -96 -81 0 -6 10 -18 22 -26 21 -14 24 -13
54 19 25 26 39 33 68 33 21 0 46 -5 57 -11 16 -8 25 -7 40 7 25 23 24 31 -8
47 -45 23 -95 27 -137 12z"/>
<path d="M500 500 c0 -29 1 -30 50 -30 53 0 62 -10 36 -45 -12 -17 -11 -21 8
-36 11 -9 25 -15 29 -12 17 10 47 88 47 121 l0 32 -85 0 -85 0 0 -30z"/>
</g>
</svg>
