<svg width="512" height="512" viewBox="0 0 512 512" fill="none" xmlns="http://www.w3.org/2000/svg">
<path d="M467.797 247.616C463.488 237.205 454.25 234.709 448 234.112V170.667C448 147.136 428.864 128 405.333 128H277.333V98.3465C283.84 92.5012 288 84.0958 288 74.6665C288 66.1797 284.629 58.0402 278.628 52.0391C272.627 46.038 264.486 42.6665 256 42.6665C247.513 42.6665 239.372 46.038 233.371 52.0391C227.37 58.0402 224 66.1797 224 74.6665C224 84.0958 228.16 92.5012 234.666 98.3465V128H106.666C83.1358 128 63.9998 147.136 63.9998 170.667V234.603L62.2505 234.731C56.8738 235.119 51.8434 237.527 48.1707 241.474C44.4979 245.419 42.4553 250.609 42.4531 256V298.667C42.4531 304.324 44.7006 309.751 48.7014 313.751C52.7023 317.751 58.1284 320 63.7865 320H63.9998V426.667C63.9998 450.197 83.1358 469.333 106.666 469.333H405.333C428.864 469.333 448 450.197 448 426.667V320C453.657 320 459.084 317.751 463.084 313.751C467.084 309.751 469.333 304.324 469.333 298.667V257.323C469.578 254.012 469.053 250.69 467.797 247.616ZM106.666 426.667V170.667H405.333L405.354 255.915L405.333 256V298.667L405.354 298.773L405.376 426.667H106.666Z" fill="#0085be"/>
<path d="M170.666 341.333H341.333V384H170.666V341.333Z" fill="#0085be"/>
<path d="M330.666 298.666C348.339 298.666 362.666 279.564 362.666 256C362.666 232.435 348.339 213.333 330.666 213.333C312.993 213.333 298.666 232.435 298.666 256C298.666 279.564 312.993 298.666 330.666 298.666Z" fill="#0085be"/>
<path d="M181.332 298.666C199.005 298.666 213.332 279.564 213.332 256C213.332 232.435 199.005 213.333 181.332 213.333C163.659 213.333 149.332 232.435 149.332 256C149.332 279.564 163.659 298.666 181.332 298.666Z" fill="#0085be"/>
<path d="M274.17 298.667L416.699 156.137C421.717 151.119 421.717 142.983 416.699 137.966C411.681 132.948 403.545 132.948 398.528 137.966L255.998 280.496L113.468 137.966C108.45 132.948 100.314 132.948 95.2968 137.966C90.2793 142.984 90.2787 151.12 95.2968 156.137L237.826 298.666L95.2968 441.197C90.2787 446.215 90.2787 454.35 95.2968 459.368C97.8055 461.877 101.094 463.131 104.383 463.131C107.671 463.131 110.959 461.877 113.469 459.368L255.998 316.838L398.527 459.368C401.036 461.877 404.324 463.131 407.613 463.131C410.902 463.131 414.19 461.877 416.699 459.368C421.717 454.35 421.717 446.214 416.699 441.197L274.17 298.667Z" fill="#E55C5C"/>
</svg>
