<svg id="Capa_1" enable-background="new 0 0 512 512" height="512" fill="#bc0063" viewBox="0 0 512 512" width="512" xmlns="http://www.w3.org/2000/svg"><g><path d="m497 200h-105v-185c0-8.284-6.716-15-15-15h-242c-8.284 0-15 6.716-15 15v185h-105c-8.284 0-15 6.716-15 15v282c0 8.284 6.716 15 15 15h482c8.284 0 15-6.716 15-15v-282c0-8.284-6.716-15-15-15zm-467 30h90v252h-90zm120-200h212v452h-31v-52c0-8.284-6.716-15-15-15h-120c-8.284 0-15 6.716-15 15v52h-31zm61 415h30v37h-30zm60 37v-37h30v37zm211 0h-90v-252h90z"/><path d="m196 295c8.284 0 15-6.716 15-15v-30c0-8.284-6.716-15-15-15s-15 6.716-15 15v30c0 8.284 6.716 15 15 15z"/><path d="m256 235c-8.284 0-15 6.716-15 15v30c0 8.284 6.716 15 15 15s15-6.716 15-15v-30c0-8.284-6.716-15-15-15z"/><path d="m301 250v30c0 8.284 6.716 15 15 15s15-6.716 15-15v-30c0-8.284-6.716-15-15-15s-15 6.716-15 15z"/><path d="m196 385c8.284 0 15-6.716 15-15v-30c0-8.284-6.716-15-15-15s-15 6.716-15 15v30c0 8.284 6.716 15 15 15z"/><path d="m256 325c-8.284 0-15 6.716-15 15v30c0 8.284 6.716 15 15 15s15-6.716 15-15v-30c0-8.284-6.716-15-15-15z"/><path d="m316 325c-8.284 0-15 6.716-15 15v30c0 8.284 6.716 15 15 15s15-6.716 15-15v-30c0-8.284-6.716-15-15-15z"/><path d="m196 115c8.284 0 15-6.716 15-15v-30c0-8.284-6.716-15-15-15s-15 6.716-15 15v30c0 8.284 6.716 15 15 15z"/><path d="m256 55c-8.284 0-15 6.716-15 15v30c0 8.284 6.716 15 15 15s15-6.716 15-15v-30c0-8.284-6.716-15-15-15z"/><path d="m301 70v30c0 8.284 6.716 15 15 15s15-6.716 15-15v-30c0-8.284-6.716-15-15-15s-15 6.716-15 15z"/><path d="m196 205c8.284 0 15-6.716 15-15v-30c0-8.284-6.716-15-15-15s-15 6.716-15 15v30c0 8.284 6.716 15 15 15z"/><path d="m256 145c-8.284 0-15 6.716-15 15v30c0 8.284 6.716 15 15 15s15-6.716 15-15v-30c0-8.284-6.716-15-15-15z"/><path d="m316 145c-8.284 0-15 6.716-15 15v30c0 8.284 6.716 15 15 15s15-6.716 15-15v-30c0-8.284-6.716-15-15-15z"/><path d="m437 320c8.284 0 15-6.716 15-15v-30c0-8.284-6.716-15-15-15s-15 6.716-15 15v30c0 8.284 6.716 15 15 15z"/><path d="m437 410c8.284 0 15-6.716 15-15v-30c0-8.284-6.716-15-15-15s-15 6.716-15 15v30c0 8.284 6.716 15 15 15z"/><path d="m75 260c-8.284 0-15 6.716-15 15v30c0 8.284 6.716 15 15 15s15-6.716 15-15v-30c0-8.284-6.716-15-15-15z"/><path d="m75 350c-8.284 0-15 6.716-15 15v30c0 8.284 6.716 15 15 15s15-6.716 15-15v-30c0-8.284-6.716-15-15-15z"/></g></svg>