<svg id="Capa_1" enable-background="new 0 0 512 512" fill="#3b974e" height="512" viewBox="0 0 512 512" width="512" xmlns="http://www.w3.org/2000/svg"><g><path d="m507.573 110.705-29.785-29.693 30.226-32.809c8.847-9.604 1.997-25.164-11.031-25.164h-116.69v-8.039c0-8.284-6.716-15-14.999-15-8.284 0-14.999 6.716-14.999 15v175h-54.129c-8.284 0-14.999 6.716-14.999 15v102.278h-123.258c-8.284 0-14.999 6.716-14.999 15v69.001h-123.257c-8.284 0-14.999 6.716-14.999 15v90.721c0 8.284 6.716 15 14.999 15h417.316c8.284 0 14.999-6.716 14.999-15v-292c0-8.284-6.716-15-14.999-15h-56.675v-53.672h116.69c13.334 0 20.044-16.197 10.589-25.623zm-472.921 310.574h108.258v60.721h-108.258zm138.256-84.001h108.258v144.722h-108.258c0-3.21 0-141.724 0-144.722zm249.061 144.722h-110.804c0-6.372 0-259.272 0-262h110.804zm24.426-389.924 14.295 14.252h-80.398v-53.289h82.475l-16.814 18.25c-5.457 5.924-5.262 15.101.442 20.787z"/><path d="m20.846 314.579c52.781-22.325 100.255-54.357 141.102-95.207 33.292-33.293 60.723-70.978 81.811-112.338l10.786 21.751c3.68 7.422 12.678 10.454 20.102 6.774 7.422-3.681 10.455-12.681 6.774-20.103l-24.645-49.7c-3.01-6.072-9.792-9.429-16.527-8.015l-53.35 11.228c-8.107 1.706-13.295 9.661-11.589 17.768 1.487 7.065 7.719 11.914 14.663 11.914 2.088 0 .743.173 27.123-5.379-19.67 38.61-45.269 73.796-76.358 104.887-38.102 38.104-82.37 67.977-131.576 88.789-7.63 3.228-11.199 12.028-7.971 19.658 3.227 7.637 12.032 11.198 19.655 7.973z"/></g></svg>