<?xml version="1.0" standalone="no"?>
<!DOCTYPE svg PUBLIC "-//W3C//DTD SVG 20010904//EN"
 "http://www.w3.org/TR/2001/REC-SVG-20010904/DTD/svg10.dtd">
<svg version="1.0" xmlns="http://www.w3.org/2000/svg"
 width="351.000000pt" height="144.000000pt" viewBox="0 0 351.000000 144.000000"
 preserveAspectRatio="xMidYMid meet">

<g transform="translate(0.000000,144.000000) scale(0.100000,-0.100000)"
fill="#9b64bc" stroke="none">
<path d="M1210 1415 c0 -9 5 -15 11 -13 6 2 11 8 11 13 0 5 -5 11 -11 13 -6 2
-11 -4 -11 -13z"/>
<path d="M1218 1370 c-4 -14 -8 -37 -8 -52 0 -18 -5 -28 -15 -28 -11 0 -15
-12 -15 -45 0 -31 -5 -47 -15 -51 -11 -5 -15 -21 -15 -60 0 -51 -5 -60 -32
-55 -5 0 -8 -154 -8 -344 l0 -345 -120 0 -120 0 0 -55 0 -55 -60 0 -60 0 0
290 c0 251 -2 290 -15 290 -11 0 -15 12 -15 45 0 25 -4 45 -10 45 -5 0 -10
-20 -10 -45 l0 -45 -55 0 -55 0 0 45 c0 25 -4 45 -10 45 -5 0 -10 -20 -10 -45
0 -38 -3 -45 -20 -45 -20 0 -20 -7 -20 -290 l0 -290 -75 0 -75 0 0 80 c0 64
-3 80 -15 80 -9 0 -15 10 -15 26 0 23 -3 25 -32 22 -25 -2 -34 -8 -36 -25 -2
-13 -10 -23 -18 -23 -11 0 -14 -22 -14 -115 0 -96 -3 -115 -15 -115 -9 0 -15
9 -15 25 0 23 -4 25 -40 25 l-40 0 0 40 0 40 -70 0 -70 0 0 -170 0 -170 1755
0 1755 0 0 115 0 115 -55 0 -55 0 0 -65 c0 -37 -4 -65 -10 -65 -6 0 -10 37
-10 90 0 73 -3 90 -15 90 -10 0 -15 11 -15 35 0 32 -3 35 -27 35 -28 0 -28 0
-25 -60 l4 -60 -51 0 c-48 0 -51 -2 -51 -25 0 -14 -4 -25 -10 -25 -5 0 -10 25
-10 55 l0 55 -60 0 -60 0 0 46 0 47 -107 -5 -108 -4 3 193 3 193 -101 0 -100
0 0 105 0 105 -35 0 -35 0 0 62 c0 60 -1 63 -42 100 l-42 37 -33 -34 c-30 -31
-33 -39 -33 -95 0 -53 -3 -63 -20 -67 -19 -5 -20 -14 -20 -264 l0 -259 -127 0
c-160 0 -173 -4 -173 -41 0 -24 -4 -29 -25 -29 l-25 0 0 -140 c0 -129 -1 -140
-18 -140 -17 0 -19 10 -18 137 l1 138 -70 3 c-38 2 -84 0 -102 -3 l-32 -6 -4
-132 c-1 -73 -4 15 -5 196 l-2 327 -75 0 -75 0 0 55 0 55 -35 0 -35 0 0 -100
0 -100 -37 0 c-79 0 -83 -5 -83 -80 0 -51 -4 -69 -15 -74 -12 -4 -15 -24 -15
-86 l0 -80 -30 0 c-25 0 -30 4 -30 25 0 14 -4 25 -10 25 -6 0 -10 120 -10 339
0 317 -1 339 -17 337 -15 -1 -19 9 -21 57 -2 42 -7 57 -17 57 -11 0 -15 13
-15 50 0 43 -3 50 -19 50 -17 0 -20 8 -23 53 -2 41 -5 47 -10 27z m1629 -1207
c-2 -38 -3 -7 -3 67 0 74 1 105 3 68 2 -38 2 -98 0 -135z"/>
<path d="M565 1001 c-6 -11 9 -23 19 -14 9 9 7 23 -3 23 -6 0 -12 -4 -16 -9z"/>
<path d="M700 1000 c0 -5 5 -10 10 -10 6 0 10 5 10 10 0 6 -4 10 -10 10 -5 0
-10 -4 -10 -10z"/>
</g>
</svg>
