<svg id="Capa_1" enable-background="new 0 0 512.003 512.003" height="512" viewBox="0 0 512.003 512.003" width="512" xmlns="http://www.w3.org/2000/svg"><path id="XMLID_1318_" d="m108.312 357.402 17.516 30.339c4.944 8.564 15.895 11.498 24.458 6.554l64.811-37.419c8.564-4.944 11.498-15.895 6.554-24.458l-6.561-11.364-61.443 10.174z" fill="#e1e3e9"/><path id="XMLID_1304_" d="m206.644 361.756 52.967 91.741 13.279 8.887c5.879 3.935 5.59 12.673-.537 16.21l-38.32 22.124c-4.569 2.638-10.41 1.072-13.048-3.496l-62.244-107.81z" fill="#98a1b3"/><path id="XMLID_1134_" d="m104.89 359.378 48.759-28.151-63.239-109.533-48.759 28.151c-30.247 17.463-40.61 56.139-23.147 86.385 17.463 30.247 56.139 40.611 86.386 23.148z" fill="#ffcb7c"/><path id="XMLID_861_" d="m388.734 282.213-235.086 49.014-63.238-109.533 159.99-179.083z" fill="#e1e3e9"/><path id="XMLID_860_" d="m418.429 290.17c10.397-6.003 13.96-19.298 7.957-29.695l-138.334-239.603c-6.003-10.397-19.298-13.96-29.695-7.957-10.397 6.003-13.96 19.298-7.957 29.695l138.335 239.602c6.002 10.398 19.297 13.961 29.694 7.958z" fill="#91def5"/><path id="XMLID_394_" d="m296.712 15.872c-8.751-15.157-28.199-20.369-43.355-11.617-7.342 4.239-12.594 11.083-14.787 19.272-1.529 5.705-1.441 11.586.183 17.112l-45.643 51.089c-3.68 4.119-3.324 10.44.795 14.12s10.441 3.322 14.119-.795l40.626-45.474 62.257 107.833 62.257 107.833-214.473 44.716-44.776-77.553-11.228-19.446 45.383-50.798c3.68-4.119 3.324-10.44-.795-14.12s-10.441-3.322-14.119.795l-49.136 54.997-47.369 27.349c-16.942 9.781-29.061 25.575-34.124 44.471s-2.465 38.633 7.316 55.575 25.575 29.061 44.471 34.124c6.311 1.69 12.713 2.527 19.075 2.527 10.713 0 21.305-2.381 31.135-7.04l12.643 21.898c5.163 8.942 14.562 13.947 24.213 13.947 4.657 0 9.37-1.171 13.696-3.621l57.248 99.156c3.617 6.266 10.202 9.772 16.965 9.772 3.314 0 6.673-.843 9.743-2.616l38.319-22.124c5.89-3.4 9.54-9.488 9.766-16.285.225-6.797-3.015-13.113-8.667-16.896l-11.345-7.593-46.806-81.07c13.167-7.75 17.664-24.739 10.011-37.995l-1.009-1.748 155.341-32.387c6.06 6.33 14.422 9.795 22.971 9.795 5.38 0 10.83-1.368 15.815-4.246 15.155-8.75 20.366-28.199 11.617-43.355zm-237.221 340.164c-13.736-3.681-25.217-12.49-32.327-24.805s-8.999-26.663-5.318-40.398 12.49-25.216 24.806-32.327l40.098-23.151 26.62 46.106 26.62 46.106-40.1 23.15c-12.317 7.111-26.664 9-40.399 5.319zm194.558 105.772 12.68 8.486-37.307 21.54-57.02-98.761 30.582-17.656 47.967 83.081c.765 1.325 1.824 2.458 3.098 3.31zm-41.058-124.392c2.18 3.775.882 8.619-2.893 10.798l-8.452 4.88c-.001.001-.002.001-.003.002s-.002.001-.003.002l-47.894 27.652c-.002.001-.004.002-.006.003s-.003.002-.005.003l-8.449 4.878c-3.774 2.18-8.618.882-10.799-2.894l-12.516-21.678 35.286-20.373 51.431-10.723zm200.439-55.906c-2.716 1.568-5.882 1.984-8.907 1.172-3.028-.812-5.561-2.754-7.128-5.469l-138.335-239.602c-1.567-2.715-1.984-5.879-1.173-8.907s2.754-5.56 5.469-7.127c1.844-1.064 3.859-1.57 5.85-1.57 4.06 0 8.014 2.105 10.186 5.867l138.335 239.602c3.235 5.604 1.308 12.798-4.297 16.034z"/><path id="XMLID_398_" d="m397.679 117.314c1.853 3.208 5.213 5.001 8.67 5.001 1.696 0 3.416-.432 4.99-1.341l64.607-37.301c4.783-2.761 6.422-8.877 3.66-13.66-2.761-4.783-8.877-6.422-13.66-3.66l-64.607 37.301c-4.783 2.761-6.422 8.877-3.66 13.66z"/><path id="XMLID_399_" d="m377.488 83.828c1.575.909 3.294 1.341 4.99 1.341 3.456 0 6.818-1.793 8.67-5.001l30.782-53.316c2.762-4.783 1.123-10.899-3.66-13.66-4.784-2.762-10.899-1.123-13.66 3.66l-30.782 53.316c-2.762 4.782-1.123 10.899 3.66 13.66z"/><path id="XMLID_400_" d="m481.708 141.543h-48.685c-5.522 0-10 4.477-10 10s4.478 10 10 10h48.685c5.522 0 10-4.477 10-10s-4.478-10-10-10z"/><path id="XMLID_401_" d="m509.083 50.009c-1.87-1.86-4.439-2.93-7.069-2.93-2.641 0-5.211 1.07-7.08 2.93-1.86 1.86-2.931 4.44-2.931 7.07s1.07 5.21 2.931 7.07c1.869 1.86 4.439 2.93 7.08 2.93 2.63 0 5.199-1.07 7.069-2.93 1.86-1.86 2.92-4.44 2.92-7.07s-1.06-5.21-2.92-7.07z"/><path id="XMLID_402_" d="m170.593 141.94c2.631 0 5.2-1.06 7.07-2.92 1.86-1.86 2.92-4.44 2.92-7.07 0-2.64-1.06-5.21-2.92-7.08-1.859-1.86-4.439-2.92-7.07-2.92-2.64 0-5.21 1.06-7.069 2.92-1.87 1.87-2.931 4.44-2.931 7.08 0 2.63 1.061 5.21 2.931 7.07 1.859 1.86 4.439 2.92 7.069 2.92z"/></svg>