<?xml version="1.0"?>
<svg xmlns="http://www.w3.org/2000/svg" xmlns:xlink="http://www.w3.org/1999/xlink" xmlns:svgjs="http://svgjs.com/svgjs" version="1.1" width="512" height="512" x="0" y="0" viewBox="0 0 56 56" style="enable-background:new 0 0 512 512" xml:space="preserve" class=""><g><g xmlns="http://www.w3.org/2000/svg" id="Page-1" fill="none" fill-rule="evenodd"><g id="020---Teamwork" fill="rgb(0,0,0)" fill-rule="nonzero" transform="translate(-1 -1)"><path id="Shape" d="m1.008 12.663c-.0463306-.4238298.08988816-.8473503.37460845-1.1647028.28472029-.3173524.69103705-.4985481 1.11739155-.4982972h6.5c.55228475 0 1-.4477153 1-1 0-.55228475-.44771525-1-1-1h-4.5c-.42629448.00101123-.8328833-.17940959-1.11816549-.49617777-.28528218-.31676818-.42230725-.73995877-.37683451-1.16382223.12796759-.79696883.83147693-1.37248929 1.638-1.34h6.357c.5522847 0 1-.44771525 1-1s-.4477153-1-1-1h-4.5c-.42629448.00101123-.8328833-.17940959-1.11816549-.49617777-.28528218-.31676818-.42230725-.73995877-.37683451-1.16382223.1275504-.79720882.83132436-1.37294576 1.638-1.34h14.809c.1822741.00138325.3607033.05256061.516.148l4.044 2.422c.465398.27904179.9973641.42757776 1.54.43h9.448v8.889l-1.732-1.418c-1.2997134-.9920197-3.1278644-.8915159-4.311.237-.8784975.8519673-1.1838425 2.1357425-.783 3.292h-3.353c-.7870196.0033139-1.5412181.3157675-2.1.87l-9.411 9.334-.02.02-.416.412c-.4877945.4768937-1.2687913.4715383-1.75-.012-.4392138-.4409512-.4820552-1.1396951-.1-1.631l2.75-3.36c.2445321-.29906.2949399-.7122196.1294846-1.0613004s-.5171779-.571641-.9034846-.5716996h-11.357c-.80522709.0314569-1.50712477-.5433694-1.635-1.339-.04572041-.4235054.09077461-.8464772.37542515-1.1633704.28465054-.3168931.69060872-.4978186 1.11657485-.4976296h5.5c.55228475 0 1-.4477153 1-1s-.44771525-1-1-1h-6.357c-.80442416.0311405-1.50580838-.5424073-1.635-1.337zm16.644 43.329c-.4210381.0454447-.8414044-.0914018-1.155-.376-.3150607-.2856821-.4954343-.6907059-.497-1.116v-.015-5.485c0-.5522847-.4477153-1-1-1s-1 .4477153-1 1v5.5.014.845c.0274644.8080688-.5522423 1.5096383-1.351 1.635-.4201596.04574-.8397246-.0912013-1.152-.376-.3157804-.2860017-.4962448-.6919558-.497-1.118v-2-.02-4.48c0-.5522847-.4477153-1-1-1-.55228475 0-1 .4477153-1 1v4.5.012c-.00266834.4240276-.18468227.8271157-.50100023 1.1095153-.31631796.2823995-.73738384.4177236-1.15899977.3724847-.79681564-.1275084-1.37242635-.8306985-1.34-1.637v-1.857-.015-4.485c0-.5522847-.44771525-1-1-1s-1 .4477153-1 1v4.5.009c-.00185239.4243577-.18336505.8280738-.49955713 1.1111028-.31619209.2830291-.73747235.4188836-1.15944287.3738972-.79658301-.1274307-1.37238413-.8298994-1.341-1.636v-14.809c.00154101-.1801517.04867232-.3569801.137-.514l2.433-4.046c.27845949-.4652825.42695702-.9967655.43-1.539v-9.45h8.888l-1.419 1.733c-.9148286 1.1127325-.9798926 2.6975092-.1593568 3.8814881.8205357 1.1839789 2.3272752 1.6794449 3.6903568 1.2135119v3.352c.0033139.7870196.3157675 1.5412181.87 2.1l9.326 9.4c.011.012.022.023.034.034l.407.41c.3503884.3566587.4523023.8888576.2584682 1.3497327-.1938342.4608751-.6454917.7602538-1.1454682.7592673-.2721359.0012076-.5366007-.0901209-.75-.259l-3.359-2.749c-.2990014-.2497249-.7158111-.3030767-1.0680718-.1367134-.3522608.1663632-.5758432.5221548-.5729282.9117134v11.357c.0276692.8070895-.5504401 1.5082829-1.348 1.635zm39.34-10.655c.0463306.4238298-.0898882.8473503-.3746084 1.1647028-.2847203.3173524-.6910371.4985481-1.1173916.4982972h-6.5c-.5522847 0-1 .4477153-1 1s.4477153 1 1 1h4.5c.4262945-.0010112.8328833.1794096 1.1181655.4961778.2852822.3167681.4223072.7399587.3768345 1.1638222-.1279676.7969688-.8314769 1.3724893-1.638 1.34h-6.357c-.5522847 0-1 .4477153-1 1s.4477153 1 1 1h4.5c.4262945-.0010112.8328833.1794096 1.1181655.4961778.2852822.3167681.4223072.7399587.3768345 1.1638222-.1275504.7972088-.8313244 1.3729458-1.638 1.34h-14.809c-.1822741-.0013833-.3607033-.0525606-.516-.148l-4.044-2.422c-.465398-.2790418-.9973641-.4275778-1.54-.43h-9.448v-8.891l1.732 1.418c1.2985208.9958877 3.1294738.8952298 4.311-.237.8787634-.8509228 1.1852394-2.1337549.786-3.29h3.35c.7870196-.0033139 1.5412181-.3157675 2.1-.87l9.408-9.33.035-.034.407-.4c.4877945-.4768937 1.2687913-.4715383 1.75.012.4392138.4409512.4820552 1.1396951.1 1.631l-2.75 3.36c-.2429447.2986794-.2928442.7103058-.1283026 1.0583828s.5142985.5707793.8993026.5726172h11.357c.8052271-.0314569 1.5071248.5433694 1.635 1.339.0457204.4235054-.0907746.8464772-.3754252 1.1633704-.2846505.3168931-.6906087.4978186-1.1165748.4976296h-5.5c-.5522847 0-1 .4477153-1 1s.4477153 1 1 1h6.36c.8033013-.0295912 1.502941.5435819 1.632 1.337zm.008-23.886c-.001534.1821145-.0523299.3604185-.147.516l-2.423 4.044c-.2789145.4650868-.4274476.996697-.43 1.539v9.45h-8.891l1.419-1.733c1.0300158-1.2873797.9270696-3.1434268-.239-4.309-.8735475-.8382248-2.136691-1.1293354-3.289-.758v-3.38c-.0033139-.7870196-.3157675-1.5412181-.87-2.1l-9.33-9.414-.019-.019-.413-.416c-.2342944-.2314392-.3651624-.5477093-.3629029-.8770311s.1374549-.6437663.3749029-.8719689c.4469994-.4264546 1.1362785-.4686899 1.632-.1l3.359 2.749c.2987148.2417036.7095035.2908685 1.0568205.1264846s.5697246-.5132384.5721795-.8974846v-11.357c-.0309343-.80540032.5442088-1.50716065 1.34-1.635.4233431-.04541573.8460408.0912172 1.1627044.37583293s.4974539.69039491.4972956 1.11616707v5.5c0 .55228475.4477153 1 1 1s1-.44771525 1-1v-6.357c-.0313889-.80555296.5439698-1.50757643 1.34-1.635.4233431-.04541573.8460408.0912172 1.1627044.37583293s.4974539.69039491.4972956 1.11616707v6.5c0 .55228475.4477153 1 1 1s1-.44771525 1-1v-4.5c-.0007267-.42612042.1798174-.83243925.4965507-1.1174992s.7397594-.42195433 1.1634493-.3765008c.7968156.12750842 1.3724263.83069851 1.34 1.637v6.357c0 .5522847.4477153 1 1 1s1-.4477153 1-1v-4.5c-.0007267-.42612042.1798174-.83243925.4965507-1.1174992s.7397594-.42195433 1.1634493-.3765008c.7961835.12788239 1.3714522.83022536 1.34 1.636z" fill="#ffffff" data-original="#000000" style="" class=""/></g></g></g></svg>
