<?xml version="1.0"?>
<svg xmlns="http://www.w3.org/2000/svg" xmlns:xlink="http://www.w3.org/1999/xlink" xmlns:svgjs="http://svgjs.com/svgjs" version="1.1" width="512" height="512" x="0" y="0" viewBox="0 0 32 32" style="enable-background:new 0 0 512 512" xml:space="preserve" class=""><g><g xmlns="http://www.w3.org/2000/svg" id="Heart"><path d="m17.8 19.6a1.0137 1.0137 0 0 1 -.8.4.997.997 0 0 1 -.89-.55l-2.23-4.46-1.05 1.56a.995.995 0 0 1 -.83.45h-10a1 1 0 0 0 0 2h5.7419l7.4381 8.69a1.03 1.03 0 0 0 .76.35.99.99 0 0 0 .75-.35l10.14-11.69h-6.33z" fill="#ff0000" data-original="#000000" style="" class=""/><path d="m30 12h-1.204a7.3065 7.3065 0 0 0 -.446-3.78 6.6289 6.6289 0 0 0 -5.62-4.22 8.1458 8.1458 0 0 0 -6.73 2.68 8.1339 8.1339 0 0 0 -6.73-2.68 6.6223 6.6223 0 0 0 -5.63 4.24 7.1027 7.1027 0 0 0 .74 6.76h7.08l1.71-2.55a.9912.9912 0 0 1 1.72.1l2.28 4.56 2.03-2.71a1.0137 1.0137 0 0 1 .8-.4h10a1 1 0 0 0 0-2z" fill="#ff0000" data-original="#000000" style="" class=""/></g></g></svg>
