<?xml version="1.0"?>
<svg xmlns="http://www.w3.org/2000/svg" xmlns:xlink="http://www.w3.org/1999/xlink" xmlns:svgjs="http://svgjs.com/svgjs" version="1.1" width="512" height="512" x="0" y="0" viewBox="0 0 520 520" style="enable-background:new 0 0 512 512" xml:space="preserve" class=""><g><g xmlns="http://www.w3.org/2000/svg" id="_47-Medical_mask" data-name="47-Medical mask"><path d="m452.718 156.014c-26.84 0-50.281 22.145-59.972 32.755l-81.472-27.507a161.2 161.2 0 0 0 -102.548 0l-81.472 27.507c-9.691-10.61-33.132-32.755-59.972-32.755-27.908 0-35.282 27.006-35.282 41.286 0 48.1 24.058 93.146 67.742 126.85 42.916 33.11 99.83 51.35 160.258 51.35s117.342-18.235 160.258-51.346c43.684-33.709 67.742-78.754 67.742-126.854 0-14.28-7.374-41.286-35.282-41.286zm-400.718 41.307c.024-2.274.669-21.307 15.282-21.307 18.7 0 38.419 18.316 46.784 27.98v105.913c-38.283-28.702-62.058-68.57-62.066-112.586zm353.934 112.586v-105.907c8.376-9.675 28.084-27.981 46.784-27.981 14.6 0 15.257 19.012 15.282 21.3-.007 44.017-23.783 83.881-62.066 112.588z" fill="#92f0ff" data-original="#000000" style=""/></g></g></svg>
