<?xml version="1.0"?>
<svg xmlns="http://www.w3.org/2000/svg" xmlns:xlink="http://www.w3.org/1999/xlink" xmlns:svgjs="http://svgjs.com/svgjs" version="1.1" width="512" height="512" x="0" y="0" viewBox="0 0 511.999 511.999" style="enable-background:new 0 0 512 512" xml:space="preserve" class=""><g><link type="text/css" rel="stylesheet" id="dark-mode-custom-link"/><link type="text/css" rel="stylesheet" id="dark-mode-general-link"/><style lang="en" type="text/css" id="dark-mode-custom-style"/><style lang="en" type="text/css" id="dark-mode-native-style"/><g xmlns="http://www.w3.org/2000/svg"><g><g><g><path d="m256 166.348s-12.41-107.349-144.263-158.849v158.849z" fill="#f0f5fa" data-original="#f0f5fa" style=""/><path d="m256 166.348s12.41-107.349 144.263-158.849v158.849z" fill="#e4ecf2" data-original="#e4ecf2" style=""/></g><g><path d="m257.589 166.348c-57.572-102.869-195.506-134.478-195.506-134.478l-27.396 27.838 189.581 126.117z" fill="#e4ecf2" data-original="#e4ecf2" style=""/><path d="m254.41 166.348c57.572-102.869 195.506-134.478 195.506-134.478l27.396 27.838-189.581 126.118z" fill="#f0f5fa" data-original="#f0f5fa" style=""/></g><path d="m497.902 387.366-193.333 108.75c-6.666 3.75-14.903-1.067-14.903-8.716l-10-158.902 10-156.303c0-3.613 1.949-6.945 5.097-8.716l193.333-108.75c6.666-3.75 14.903 1.067 14.903 8.716v315.204c.001 3.614-1.948 6.946-5.097 8.717z" fill="#4ac93a" data-original="#ff8ae0" style="" class=""/><path d="m488.097 54.731-25.097 14.117v309.802c0 3.613-1.949 6.945-5.097 8.716l-168.236 94.633v5.401c0 7.648 8.237 12.465 14.903 8.716l193.333-108.75c3.149-1.771 5.097-5.103 5.097-8.716v-315.204c0-7.648-8.237-12.465-14.903-8.715z" fill="#0cb942" data-original="#ff70d9" style="" class=""/><path d="m207.43 496.116-193.333-108.75c-3.149-1.771-5.097-5.103-5.097-8.715v-315.205c0-7.648 8.237-12.465 14.903-8.716l193.333 108.75c3.149 1.771 5.097 5.103 5.097 8.716v315.204c0 7.649-8.237 12.466-14.903 8.716z" fill="#4ac93a" data-original="#ff8ae0" style="" class=""/><path d="m217.235 163.481-193.333-108.75c-6.666-3.75-14.902 1.067-14.902 8.715v5.402l168.236 94.633c3.149 1.771 5.097 5.103 5.097 8.716v309.803l25.097 14.117c6.666 3.75 14.903-1.067 14.903-8.716l10-158.401-10-156.803c0-3.613-1.949-6.945-5.098-8.716z" fill="#0cb942" data-original="#ff70d9" style="" class=""/><path d="m466.336 185.83-140.006 80v-48.35l140.006-80z" fill="#ffffff" data-original="#ffffff" style=""/><g><path d="m279.666 504.499h-47.333c-5.523 0-10-4.477-10-10v-318.151c0-5.523 4.477-10 10-10h47.333c5.523 0 10 4.477 10 10v318.151c0 5.523-4.477 10-10 10z" fill="#4ac93a" data-original="#ff8ae0" style="" class=""/><path d="m279.666 166.348h-34c5.523 0 10 4.477 10 10v318.151c0 5.523-4.477 10-10 10h34c5.523 0 10-4.477 10-10v-318.151c0-5.523-4.477-10-10-10z" fill="#0cb942" data-original="#ff70d9" style="" class=""/><g fill="#ffda45"><path d="m222.333 201.231h67.333v33.333h-67.333z" fill="#ffda45" data-original="#ffda45" style=""/><path d="m222.333 436.283h67.333v33.333h-67.333z" fill="#ffda45" data-original="#ffda45" style=""/></g></g></g></g><g fill="#060606"><path d="m256 282.924c-4.142 0-7.5 3.357-7.5 7.5v90c0 4.143 3.358 7.5 7.5 7.5s7.5-3.357 7.5-7.5v-90c0-4.143-3.358-7.5-7.5-7.5z" fill="#060606" data-original="#060606" style="" class=""/><path d="m503 297.924c4.142 0 7.5-3.357 7.5-7.5v-226.978c0-13.012-14.659-21.676-26.08-15.253l-5.096 2.866-24.062-24.45c-1.827-1.855-4.486-2.63-7.021-2.05-.979.224-17.111 3.985-40.479 12.898v-29.958c0-2.478-1.224-4.796-3.27-6.193-2.046-1.396-4.651-1.692-6.958-.793-70.109 27.384-106.842 70.539-125.311 101.919-7.497 12.739-12.671 24.561-16.223 34.45-3.552-9.889-8.726-21.711-16.223-34.45-18.469-31.38-55.202-74.535-125.311-101.919-2.307-.899-4.912-.604-6.958.793s-3.27 3.716-3.27 6.193v29.954c-23.317-8.891-39.443-12.656-40.48-12.893-2.539-.58-5.195.194-7.021 2.05l-24.062 24.45-5.096-2.867c-11.341-6.377-26.079 2.15-26.079 15.253v315.204c0 6.313 3.418 12.156 8.92 15.253l193.333 108.75c4.212 1.886 9.498 2.861 13.943 1.41 3.129 4.772 8.517 7.936 14.637 7.936h47.333c6.12 0 11.508-3.164 14.637-7.936 4.746 1.509 9.393 1.039 13.943-1.41l193.334-108.751c5.501-3.096 8.919-8.939 8.919-15.252v-40.227c0-9.697-15-9.697-15 0v40.227c0 .902-.489 1.737-1.274 2.179l-193.334 108.75c-2.075.699-3.317-.028-3.726-2.179v-311.052c-.276-1.496-.33-5.427 1.274-6.33l193.333-108.75c2.076-.698 3.318.028 3.727 2.179v226.978c.001 4.141 3.358 7.499 7.501 7.499zm-110.238-279.222v24.808c-7.085 3.018-14.588 6.442-22.353 10.31-27.388 13.642-61.643 34.82-90.239 65.217 1.523-2.93 3.176-5.934 4.98-8.997 16.354-27.786 48.133-65.489 107.612-91.338zm-110.596 208.362h-52.333v-18.333h52.333zm-52.333 15h52.333v186.718h-52.333zm0 201.718h52.333v18.334h-52.333zm52.333-250.051h-52.333v-17.384c0-1.379 1.122-2.5 2.5-2.5h47.333c1.378 0 2.5 1.121 2.5 2.5zm-217.757-153.533c10.906 2.911 42.706 12.288 78.232 31.014 8.277 4.362 15.553-8.758 6.994-13.27-10.632-5.604-20.888-10.382-30.398-14.434v-24.806c59.141 25.7 90.856 63.114 107.226 90.685 1.913 3.222 3.657 6.381 5.261 9.464-11.776-12.53-25.262-24.305-40.425-35.228-7.866-5.67-16.636 6.502-8.768 12.17 25.897 18.656 46.607 39.827 61.742 63.056-8.705-.713-16.151 2.152-23.362-1.904l-174.689-98.265zm149.186 449.361c-.829.014-1.658.021-2.488.021l-193.333-108.75c-.786-.442-1.275-1.277-1.275-2.18v-315.204c0-1.998 2.208-3.031 3.726-2.179l193.333 108.749c1.605.905 1.551 4.833 1.275 6.331v311.053c0 1.248-.776 1.888-1.238 2.159zm68.571 4.94c0 1.379-1.122 2.5-2.5 2.5h-47.333c-1.378 0-2.5-1.121-2.5-2.5v-17.383h52.333zm8.92-337.556c-7.343 4.131-14.481 1.292-23.35 1.904 29.369-44.988 74.814-74.351 109.024-91.433 32.391-16.174 60.673-24.499 70.831-27.215l18.186 18.48z" fill="#060606" data-original="#060606" style="" class=""/><path d="m462.615 130.968-140.006 80c-2.336 1.335-3.779 3.82-3.779 6.512v48.351c0 5.659 6.308 9.321 11.221 6.512l140.005-80c2.337-1.335 3.779-3.82 3.779-6.512v-48.351c0-5.253-6.043-9.473-11.22-6.512zm-3.78 50.51-125.005 71.428v-31.074l125.005-71.429z" fill="#060606" data-original="#060606" style="" class=""/></g></g></g></svg>
