<svg id="Capa_1" enable-background="new 0 0 512 512" height="512" viewBox="0 0 512 512" width="512" xmlns="http://www.w3.org/2000/svg"><g><path d="m426.228.004h-340.456c-3.866 0-7 3.134-7 7v82.07h354.455v-82.07c.001-3.866-3.133-7-6.999-7z" fill="#5f99d7"/><path d="m130.277 0v89.069h-51.509v-81.858c0-3.982 3.228-7.211 7.211-7.211z" fill="#3c87d0"/><g fill="#d8ecfe"><path d="m137.848 157.54h-59.076l44.307-78.768h44.307z"/><path d="m256 157.54h-59.076l14.769-78.768h44.307z"/><path d="m374.152 157.54h-59.076l-14.769-78.768h44.307z"/><path d="m492.303 157.54h-59.075l-44.307-78.768h44.307z"/></g><path d="m78.772 157.54h354.455v325.373h-354.455z" fill="#8ac9fe"/><path d="m78.768 157.535h39.384v315.081h-39.384z" fill="#60b7ff"/><path d="m374.152 177.54h-59.076-59.076-59.076-59.076-59.076v30.404c0 15.835 12.837 28.673 28.673 28.673h1.731c15.835 0 28.672-12.837 28.673-28.671.001 15.835 12.838 28.671 28.673 28.671h1.731c15.835 0 28.672-12.837 28.673-28.671.001 15.835 12.838 28.671 28.673 28.671h1.731c15.835 0 28.671-12.836 28.673-28.67.001 15.834 12.838 28.67 28.673 28.67h1.731c15.835 0 28.672-12.837 28.673-28.671.001 15.835 12.838 28.671 28.673 28.671h1.731c15.835 0 28.672-12.837 28.673-28.671 0 15.835 12.837 28.671 28.672 28.671h1.731c15.835 0 28.673-12.837 28.673-28.673v-30.404z" fill="#60b7ff"/><path d="m109.176 216.616h-1.731c-15.836 0-28.673-12.837-28.673-28.673v-30.403h59.076v30.403c0 15.836-12.837 28.673-28.672 28.673z" fill="#eaf6ff"/><path d="m345.479 216.616h-1.731c-15.835 0-28.673-12.837-28.673-28.673v-30.403h59.076v30.403c.001 15.836-12.836 28.673-28.672 28.673z" fill="#eaf6ff"/><path d="m227.327 216.616h-1.731c-15.835 0-28.673-12.837-28.673-28.673v-30.403h59.077v30.403c0 15.836-12.837 28.673-28.673 28.673z" fill="#eaf6ff"/><path d="m78.772 157.54h-59.076l59.076-78.768h44.307z" fill="#eb5569"/><path d="m196.924 157.54h-59.076l29.538-78.768h44.307z" fill="#eb5569"/><path d="m315.076 157.54h-59.076v-78.768h44.307z" fill="#eb5569"/><path d="m433.228 157.54h-59.076l-29.538-78.768h44.307z" fill="#eb5569"/><path d="m50.1 216.616h-1.731c-15.835 0-28.673-12.837-28.673-28.673v-30.403h59.076v30.403c0 15.836-12.837 28.673-28.672 28.673z" fill="#f07281"/><path d="m168.252 216.616h-1.731c-15.835 0-28.673-12.837-28.673-28.673v-30.403h59.076v30.403c0 15.836-12.837 28.673-28.672 28.673z" fill="#f07281"/><path d="m286.403 216.616h-1.731c-15.835 0-28.672-12.837-28.672-28.673v-30.403h59.076v30.403c0 15.836-12.837 28.673-28.673 28.673z" fill="#f07281"/><path d="m404.555 216.616h-1.731c-15.835 0-28.673-12.837-28.673-28.673v-30.403h59.076v30.403c.001 15.836-12.836 28.673-28.672 28.673z" fill="#f07281"/><path d="m463.631 216.616h-1.731c-15.835 0-28.673-12.837-28.673-28.673v-30.403h59.076v30.403c.001 15.836-12.837 28.673-28.672 28.673z" fill="#eaf6ff"/><path d="m236.308 482.914h-118.152v-218.09c0-3.866 3.134-7 7-7h104.152c3.866 0 7 3.134 7 7z" fill="#eaf6ff"/><path d="m149.057 257.823v214.793h-30.905v-207.581c0-3.983 3.229-7.211 7.211-7.211h23.694z" fill="#d8ecfe"/><path d="m393.844 355.827-7.011 10.302h-103.276l-7.865-10.302v-90.793c0-3.983 3.229-7.211 7.211-7.211h103.729c3.983 0 7.211 3.229 7.211 7.211v90.793z" fill="#eaf6ff"/><path d="m306.592 257.823v98.001h-30.905v-90.79c0-3.983 3.229-7.211 7.211-7.211z" fill="#d8ecfe"/><g><path d="m157.54 421.262c-4.268 0-7.726-3.459-7.726-7.726v-39.384c0-4.267 3.459-7.726 7.726-7.726 4.268 0 7.726 3.459 7.726 7.726v39.384c.001 4.267-3.458 7.726-7.726 7.726z" fill="#5f99d7"/></g><path d="m275.692 355.827h118.152v31.016c0 3.866-3.134 7-7 7h-104.152c-3.866 0-7-3.134-7-7z" fill="#5f99d7"/><path d="m306.592 355.825v38.024h-23.694c-3.983 0-7.211-3.229-7.211-7.211v-30.813z" fill="#3c87d0"/><path d="m472.612 511.996h-433.224v-32.384c0-3.866 3.134-7 7-7h419.223c3.866 0 7 3.134 7 7v32.384z" fill="#5f99d7"/><path d="m90.893 472.616v39.384h-51.509v-32.172c0-3.983 3.229-7.211 7.211-7.211h44.298z" fill="#3c87d0"/></g></svg>