<?xml version="1.0"?>
<svg xmlns="http://www.w3.org/2000/svg" xmlns:xlink="http://www.w3.org/1999/xlink" xmlns:svgjs="http://svgjs.com/svgjs" version="1.1" width="512" height="512" x="0" y="0" viewBox="0 0 512 512" style="enable-background:new 0 0 512 512" xml:space="preserve" class=""><g><g xmlns="http://www.w3.org/2000/svg"><path d="m346 240c-8.401 0-15-6.601-15-15v-75h-150v75c0 8.399-6.599 15-15 15s-15-6.601-15-15v-75h-45c-8.401 0-15 6.599-15 15 0 176.4-29.399 327.499-29.7 328.999-.901 4.501.301 9.001 3 12.601 3.001 3.3 7.2 5.4 11.7 5.4h360c4.501 0 8.699-2.1 11.7-5.4 2.699-3.6 3.9-8.101 2.999-12.601-.3-1.5-29.699-152.599-29.699-328.999 0-8.401-6.599-15-15-15h-45v75c0 8.399-6.599 15-15 15z" fill="#ff6565" data-original="#000000" style=""/><path d="m151 150h30v-45c0-41.4 33.6-75 75-75s75 33.6 75 75v45h30v-45c0-57.9-47.1-105-105-105s-105 47.1-105 105z" fill="#ff6565" data-original="#000000" style=""/></g></g></svg>
