<?xml version="1.0"?>
<svg xmlns="http://www.w3.org/2000/svg" xmlns:xlink="http://www.w3.org/1999/xlink" xmlns:svgjs="http://svgjs.com/svgjs" version="1.1" width="512" height="512" x="0" y="0" viewBox="0 0 512 512" style="enable-background:new 0 0 512 512" xml:space="preserve" class=""><g><linearGradient xmlns="http://www.w3.org/2000/svg" id="Blue_2" gradientUnits="userSpaceOnUse" x1="6" x2="506" y1="256" y2="256"><stop stop-opacity="1" stop-color="#b57bff" offset="0.007722007722007722"/><stop stop-opacity="1" stop-color="#7026ab" offset="0.5"/><stop stop-opacity="1" stop-color="#5b2a82" offset="1"/></linearGradient><linearGradient xmlns="http://www.w3.org/2000/svg" id="linear-gradient" gradientUnits="userSpaceOnUse" x1="158.062" x2="419.969" y1="183.655" y2="445.562"><stop offset="0"/><stop offset="1" stop-opacity="0"/></linearGradient><circle xmlns="http://www.w3.org/2000/svg" cx="256" cy="256" fill="url(#Blue_2)" r="250" data-original="url(#Blue_2)" style=""/><path xmlns="http://www.w3.org/2000/svg" d="m495.9 326.508-171.935-171.935c-15.835-16.621-39.965-26.444-69.033-26.444-54.6 0-87.65 33.33-87.65 83.753v4.618l67.052 67.052c-16.687 20.722-39.631 48.06-71.072 85.143v15.18l120.577 120.574c101.183-11.213 184.144-82.8 212.061-177.941z" fill="url(#linear-gradient)" opacity=".49" data-original="url(#linear-gradient)" style=""/><path xmlns="http://www.w3.org/2000/svg" d="m348.738 324.726v59.145h-185.476v-15.18c100.338-118.344 114.158-137.469 114.158-158.879 0-13.522-8.909-22.59-21.682-22.59-14 0-22.535 9.442-22.535 24.454v4.82h-65.921v-4.614c0-50.423 33.049-83.753 87.65-83.753 52.9 0 89.423 32.524 89.423 79.343 0 31.381-11.61 55.471-64.947 117.254z" fill="#ffffff" data-original="#ffffff" style=""/></g></svg>
