<?xml version="1.0" standalone="no"?>
<!DOCTYPE svg PUBLIC "-//W3C//DTD SVG 20010904//EN"
 "http://www.w3.org/TR/2001/REC-SVG-20010904/DTD/svg10.dtd">
<svg version="1.0" xmlns="http://www.w3.org/2000/svg"
 width="512.000000pt" height="446.000000pt" viewBox="0 0 512.000000 446.000000"
 preserveAspectRatio="xMidYMid meet">

<g transform="translate(0.000000,446.000000) scale(0.100000,-0.100000)"
fill="#000000" stroke="none">
<path d="M2094 3514 c-130 -118 -139 -129 -142 -166 -3 -32 2 -44 22 -63 l26
-24 0 -605 c0 -584 -1 -605 -19 -618 -11 -8 -22 -29 -26 -49 -6 -34 -4 -37
134 -167 148 -140 150 -142 200 -103 l24 18 -24 59 c-24 58 -24 64 -27 472
l-3 412 310 0 311 0 0 -402 c-1 -397 -1 -404 -24 -473 -26 -76 -26 -75 31
-106 20 -11 33 -1 157 117 131 124 136 130 136 169 0 29 -5 44 -20 53 -20 12
-20 23 -20 622 0 599 0 610 20 622 16 10 20 23 19 63 l0 50 -136 122 -136 122
-29 -17 c-47 -27 -49 -34 -25 -93 20 -50 22 -74 25 -321 l3 -268 -311 0 -312
0 4 258 c4 229 7 264 26 321 23 70 21 76 -25 103 l-30 17 -139 -125z"/>
<path d="M1180 1375 l0 -25 1390 0 1390 0 0 25 0 25 -1390 0 -1390 0 0 -25z"/>
<path d="M1340 1105 c0 -128 1 -135 20 -135 18 0 20 7 20 60 l0 60 45 0 45 0
0 -60 c0 -53 2 -60 20 -60 19 0 20 7 20 136 0 124 -2 135 -17 132 -14 -2 -19
-15 -21 -61 l-3 -57 -44 0 -45 0 0 60 c0 53 -2 60 -20 60 -19 0 -20 -7 -20
-135z"/>
<path d="M1752 1224 c-20 -14 -22 -23 -22 -117 0 -56 4 -107 8 -113 15 -22 54
-36 88 -30 58 11 64 25 64 141 0 96 -2 105 -22 119 -12 9 -38 16 -58 16 -20 0
-46 -7 -58 -16z m87 -28 c8 -9 11 -46 9 -103 l-3 -88 -30 -3 c-19 -3 -33 2
-42 14 -19 26 -17 144 3 172 17 25 46 29 63 8z"/>
<path d="M2110 1105 l0 -135 58 0 c75 0 102 18 102 69 0 20 -5 42 -11 48 -8 8
-8 17 0 31 13 23 14 72 3 88 -14 22 -51 34 -101 34 l-51 0 0 -135z m118 67 c5
-32 -15 -52 -49 -52 -27 0 -29 3 -29 41 l0 40 38 -3 c30 -2 38 -7 40 -26z
m-10 -94 c7 -7 12 -21 12 -33 0 -29 -19 -45 -52 -45 -27 0 -28 2 -28 45 0 43
1 45 28 45 15 0 33 -5 40 -12z"/>
<path d="M2500 1220 c-17 -17 -20 -33 -20 -118 0 -83 3 -102 18 -115 51 -46
136 -24 148 38 12 63 0 171 -20 194 -26 29 -98 29 -126 1z m92 -27 c14 -13 18
-31 18 -85 0 -80 -11 -108 -43 -108 -39 0 -47 19 -47 107 0 68 3 84 18 92 24
14 33 13 54 -6z"/>
<path d="M2860 1105 c0 -128 1 -135 20 -135 17 0 20 7 20 49 0 30 5 53 14 60
12 10 21 1 52 -49 29 -47 42 -60 61 -60 13 0 22 3 20 8 -3 4 -23 37 -46 75
-22 37 -41 70 -41 73 0 3 18 29 41 58 35 43 38 52 23 55 -18 3 -40 -17 -96
-89 l-27 -35 -1 63 c0 55 -2 62 -20 62 -19 0 -20 -7 -20 -135z"/>
<path d="M3250 1105 l0 -135 75 0 c60 0 75 3 75 15 0 12 -13 15 -55 15 l-55 0
0 45 0 45 45 0 c33 0 45 4 45 15 0 11 -12 15 -45 15 l-45 0 0 40 0 40 55 0
c48 0 55 2 55 20 0 18 -7 20 -75 20 l-75 0 0 -135z"/>
<path d="M3620 1105 c0 -128 1 -135 20 -135 19 0 20 7 20 93 l0 92 48 -90 c27
-51 55 -91 65 -93 15 -3 17 9 17 132 0 113 -3 136 -15 136 -11 0 -15 -19 -17
-92 l-3 -93 -49 93 c-35 64 -55 92 -68 92 -17 0 -18 -11 -18 -135z"/>
<path d="M1180 845 l0 -25 1390 0 1390 0 0 25 0 25 -1390 0 -1390 0 0 -25z"/>
</g>
</svg>
