<?xml version="1.0" encoding="UTF-8"?>
<svg xmlns="http://www.w3.org/2000/svg" id="outline" fill="#eeeeee" viewBox="0 0 64 64" width="512" height="512"><path d="M58.186,51.066a8,8,0,1,0-12.371,0,10.365,10.365,0,0,0-1.122.64,13.2,13.2,0,0,0-5.631-4.634,10,10,0,1,0-14.124,0,13.2,13.2,0,0,0-5.631,4.634,10.462,10.462,0,0,0-1.122-.64,8,8,0,1,0-12.371,0A10.365,10.365,0,0,0,0,60.363V62a2,2,0,0,0,2,2H62a2,2,0,0,0,2-2V60.363A10.365,10.365,0,0,0,58.186,51.066ZM52,42a4,4,0,1,1-4,4A4,4,0,0,1,52,42ZM32,34a6,6,0,1,1-6,6A6.006,6.006,0,0,1,32,34ZM12,42a4,4,0,1,1-4,4A4,4,0,0,1,12,42ZM10.363,54h3.274a6.368,6.368,0,0,1,3.919,1.361A13.062,13.062,0,0,0,17,59.123V60H4.01A6.372,6.372,0,0,1,10.363,54ZM21,59.123A9.134,9.134,0,0,1,30.123,50h3.754A9.134,9.134,0,0,1,43,59.123V60H21ZM47,60v-.877a13.062,13.062,0,0,0-.556-3.762A6.366,6.366,0,0,1,50.363,54h3.274a6.372,6.372,0,0,1,6.353,6Z"/><path d="M19.926,20h6.838l3.447,6.9a2,2,0,0,0,3.578,0L37.236,20h6.838A4.931,4.931,0,0,0,49,15.074V4.926A4.931,4.931,0,0,0,44.074,0H19.926A4.931,4.931,0,0,0,15,4.926V15.074A4.931,4.931,0,0,0,19.926,20ZM19,4.926A.927.927,0,0,1,19.926,4H44.074A.927.927,0,0,1,45,4.926V15.074a.927.927,0,0,1-.926.926H36a2,2,0,0,0-1.789,1.105L32,21.528l-2.211-4.423A2,2,0,0,0,28,16H19.926A.927.927,0,0,1,19,15.074Z"/></svg>
